<?xml version="1.0" encoding="utf-8"?>
<!-- Generator: Adobe Illustrator 20.1.0, SVG Export Plug-In . SVG Version: 6.00 Build 0)  -->
<svg version="1.1" id="Layer_1" xmlns="http://www.w3.org/2000/svg" xmlns:xlink="http://www.w3.org/1999/xlink" x="0px" y="0px"
	 width="256px" height="177.8px" viewBox="0 0 256 177.8" style="enable-background:new 0 0 256 177.8;" xml:space="preserve">
<style type="text/css">
	.st0{fill:#609E9F;}
	.st1{enable-background:new    ;}
	.st2{fill:#989898;}
	.st3{fill:#F15C4D;}
	.st4{fill:#7D3244;}
</style>
<path class="st0" d="M171.4,112.1L171.4,112.1L171.4,112.1z"/>
<g class="st1">
	<path class="st2" d="M15.8,146.5c1.9,0.8,3.5,1.9,5,3.4c1.4,1.4,2.6,3.1,3.4,5c0.8,1.9,1.2,4,1.2,6.1c0,4.3-1.4,8.2-3.9,11.1
		c-1.3,1.5-2.8,2.6-4.6,3.4c-1.8,0.9-3.8,1.3-5.9,1.3h-0.8c-1.8,0-3.5-0.7-4.7-1.8v1.8H2.9v-31.5h6.8
		C11.8,145.3,13.9,145.7,15.8,146.5z M22.7,161c0-7.2-5.8-13-13-13H5.6v16.6c1.2-1.1,2.9-1.8,4.7-1.8v2.7c-2.3,0-4.3,1.9-4.3,4.3
		c0,2.3,1.9,4.3,4.3,4.3h0.8C17.8,174,22.7,168.6,22.7,161z"/>
	<path class="st2" d="M49.8,176.7l-18.6-24v23.8h-2.7v-31.6l18.6,24v-23.8h2.7V176.7z"/>
	<path class="st2" d="M64.8,145.1L77,176.7h-2.9l-2.4-6.2H57.8l-2.4,6.2h-2.9L64.8,145.1z M70.7,167.8l-5.9-15.2l-5.9,15.2H70.7z"/>
</g>
<g>
	<path class="st3" d="M178.4,107.8l15-15l-0.1-0.1L249,37.1c6.2-6.2,7.8-15.3,4.7-23l0,0c-0.1-0.3-0.2-0.5-0.4-0.8
		c-1-2.3-2.5-4.4-4.3-6.2l-0.4-0.4C240.3-1.2,227.1-1.1,219,7l-15,15l0.1,0.1l-55.6,55.6c-6.2,6.2-7.8,15.3-4.7,23l0,0
		c0.1,0.3,0.2,0.5,0.4,0.8c1,2.3,2.5,4.4,4.3,6.2l0.4,0.4C157,116.1,170.2,116,178.4,107.8z"/>
	<path class="st0" d="M37.1,108l15-15L52,92.9l55.6-55.6c6.2-6.2,7.8-15.3,4.7-23l0,0c-0.1-0.3-0.2-0.5-0.4-0.8
		c-1-2.3-2.5-4.4-4.3-6.2l-0.4-0.4C99-1,85.8-0.9,77.6,7.2l-15,15l0.1,0.1L7,78c-6.2,6.2-7.8,15.3-4.7,23l0,0
		c0.1,0.3,0.2,0.5,0.4,0.8c1,2.3,2.5,4.4,4.3,6.2l0.4,0.4C15.7,116.3,28.9,116.2,37.1,108z"/>
	<path class="st4" d="M178.4,77.9l-15-15l-0.1,0.1L107.7,7.3c-6.2-6.2-15.3-7.8-23-4.7l0,0c-0.3,0.1-0.5,0.2-0.8,0.4
		c-2.3,1-4.4,2.5-6.2,4.3l-0.4,0.4c-7.9,8.3-7.8,21.5,0.4,29.6l15,15l0.1-0.1l55.6,55.6c6.2,6.2,15.3,7.8,23,4.7l0,0
		c0.3-0.1,0.5-0.2,0.8-0.4c2.3-1,4.4-2.5,6.2-4.3l0.4-0.4C186.7,99.2,186.6,86,178.4,77.9z"/>
</g>
</svg>
