<?xml version="1.0" encoding="utf-8"?>
<!-- Generator: Adobe Illustrator 23.0.4, SVG Export Plug-In . SVG Version: 6.00 Build 0)  -->
<svg version="1.1" id="Layer_2" xmlns="http://www.w3.org/2000/svg" xmlns:xlink="http://www.w3.org/1999/xlink" x="0px" y="0px"
	 viewBox="0 0 192 192" enable-background="new 0 0 192 192" xml:space="preserve">
<path fill="#455A65" d="M149.3,87.7L149.3,87.7c-6.2,10.8-20,14.4-30.7,8.2L51,57c-10.8-6.2-14.4-20-8.2-30.7l0,0
	c6.2-10.8,20-14.4,30.7-8.2L141,57C151.8,63.2,155.5,77,149.3,87.7z"/>
<path fill="#F7A94C" d="M149.3,165.8L149.3,165.8c-6.2,10.8-20,14.4-30.7,8.2L51,135c-10.8-6.2-14.4-20-8.2-30.7l0,0
	c6.2-10.8,20-14.4,30.7-8.2l67.6,39C151.8,141.3,155.5,155,149.3,165.8z"/>
<path fill="#E97534" d="M42.7,126.7L42.7,126.7c-6.2-10.8-2.5-24.5,8.2-30.7l67.6-39c10.8-6.2,24.5-2.5,30.7,8.2l0,0
	c6.2,10.8,2.5,24.5-8.2,30.7l-67.6,39C62.7,141.1,49,137.5,42.7,126.7z"/>
</svg>
