<?xml version="1.0" encoding="utf-8"?>
<!-- Generator: Adobe Illustrator 20.1.0, SVG Export Plug-In . SVG Version: 6.00 Build 0)  -->
<svg version="1.1" id="Layer_1" xmlns="http://www.w3.org/2000/svg" xmlns:xlink="http://www.w3.org/1999/xlink" x="0px" y="0px"
	 width="256px" height="177.8px" viewBox="0 0 256 177.8" style="enable-background:new 0 0 256 177.8;" xml:space="preserve">
<style type="text/css">
	.st0{fill:#609E9F;}
	.st3{fill:#F15C4D;}
	.st4{fill:#7D3244;}
</style>
<g>
	<path class="st3" d="M178.4,107.8l15-15l-0.1-0.1L249,37.1c6.2-6.2,7.8-15.3,4.7-23l0,0c-0.1-0.3-0.2-0.5-0.4-0.8
		c-1-2.3-2.5-4.4-4.3-6.2l-0.4-0.4C240.3-1.2,227.1-1.1,219,7l-15,15l0.1,0.1l-55.6,55.6c-6.2,6.2-7.8,15.3-4.7,23l0,0
		c0.1,0.3,0.2,0.5,0.4,0.8c1,2.3,2.5,4.4,4.3,6.2l0.4,0.4C157,116.1,170.2,116,178.4,107.8z"/>
	<path class="st0" d="M37.1,108l15-15L52,92.9l55.6-55.6c6.2-6.2,7.8-15.3,4.7-23l0,0c-0.1-0.3-0.2-0.5-0.4-0.8
		c-1-2.3-2.5-4.4-4.3-6.2l-0.4-0.4C99-1,85.8-0.9,77.6,7.2l-15,15l0.1,0.1L7,78c-6.2,6.2-7.8,15.3-4.7,23l0,0
		c0.1,0.3,0.2,0.5,0.4,0.8c1,2.3,2.5,4.4,4.3,6.2l0.4,0.4C15.7,116.3,28.9,116.2,37.1,108z"/>
	<path class="st4" d="M178.4,77.9l-15-15l-0.1,0.1L107.7,7.3c-6.2-6.2-15.3-7.8-23-4.7l0,0c-0.3,0.1-0.5,0.2-0.8,0.4
		c-2.3,1-4.4,2.5-6.2,4.3l-0.4,0.4c-7.9,8.3-7.8,21.5,0.4,29.6l15,15l0.1-0.1l55.6,55.6c6.2,6.2,15.3,7.8,23,4.7l0,0
		c0.3-0.1,0.5-0.2,0.8-0.4c2.3-1,4.4-2.5,6.2-4.3l0.4-0.4C186.7,99.2,186.6,86,178.4,77.9z"/>
</g>
</svg>
