<svg width="224px" height="252px" viewBox="0 0 224 252" version="1.1" xmlns="http://www.w3.org/2000/svg" xmlns:xlink="http://www.w3.org/1999/xlink">
    <!-- Generator: Sketch 46.2 (44496) - http://www.bohemiancoding.com/sketch -->
    <desc>Created with Sketch.</desc>
    <defs></defs>
    <g id="Cover" stroke="none" stroke-width="1" fill="none" fill-rule="evenodd">
        <g id="Struttura" transform="translate(-402.000000, -667.000000)">
            <g id="DNA" transform="translate(393.000000, 658.000000)">
                <path d="M183,85 C183,71.1928813 194.192881,60 208,60 C221.807119,60 233,71.1928813 233,85 L233,185 C233,198.807119 221.807119,210 208,210 C194.192881,210 183,198.807119 183,185 L183,85 Z" id="Combined-Shape-Copy-4" fill="#E010B3" style="mix-blend-mode: multiply;"></path>
                <path d="M139.451905,160.150635 C139.451905,146.343516 150.644787,135.150635 164.451905,135.150635 C178.259024,135.150635 189.451905,146.343516 189.451905,160.150635 L189.451905,260.150635 C189.451905,273.957754 178.259024,285.150635 164.451905,285.150635 C150.644787,285.150635 139.451905,273.957754 139.451905,260.150635 L139.451905,160.150635 Z" id="Combined-Shape-Copy-6" fill="#F8E71C" style="mix-blend-mode: multiply;" transform="translate(164.451905, 210.150635) rotate(60.000000) translate(-164.451905, -210.150635) "></path>
                <path d="M139.451905,9.15063509 C139.451905,-4.65648365 150.644787,-15.8493649 164.451905,-15.8493649 C178.259024,-15.8493649 189.451905,-4.65648365 189.451905,9.15063509 L189.451905,109.150635 C189.451905,122.957754 178.259024,134.150635 164.451905,134.150635 C150.644787,134.150635 139.451905,122.957754 139.451905,109.150635 L139.451905,9.15063509 Z" id="Combined-Shape-Copy-7" fill="#D30000" style="mix-blend-mode: multiply;" transform="translate(164.451905, 59.150635) scale(-1, 1) rotate(60.000000) translate(-164.451905, -59.150635) "></path>
                <path d="M52.4519053,160.150635 C52.4519053,146.343516 63.6447865,135.150635 77.4519053,135.150635 C91.259024,135.150635 102.451905,146.343516 102.451905,160.150635 L102.451905,260.150635 C102.451905,273.957754 91.259024,285.150635 77.4519053,285.150635 C63.6447865,285.150635 52.4519053,273.957754 52.4519053,260.150635 L52.4519053,160.150635 Z" id="Combined-Shape-Copy-12" fill="#50E3DC" style="mix-blend-mode: multiply;" transform="translate(77.451905, 210.150635) scale(-1, 1) rotate(60.000000) translate(-77.451905, -210.150635) "></path>
                <path d="M52.4519053,9.15063509 C52.4519053,-4.65648365 63.6447865,-15.8493649 77.4519053,-15.8493649 C91.259024,-15.8493649 102.451905,-4.65648365 102.451905,9.15063509 L102.451905,109.150635 C102.451905,122.957754 91.259024,134.150635 77.4519053,134.150635 C63.6447865,134.150635 52.4519053,122.957754 52.4519053,109.150635 L52.4519053,9.15063509 Z" id="Combined-Shape-Copy-17" fill="#2960A0" style="mix-blend-mode: multiply;" transform="translate(77.451905, 59.150635) rotate(60.000000) translate(-77.451905, -59.150635) "></path>
                <path d="M9,85 C9,71.1928813 20.1928813,60 34,60 C47.8071187,60 59,71.1928813 59,85 L59,185 C59,198.807119 47.8071187,210 34,210 C20.1928813,210 9,198.807119 9,185 L9,85 Z" id="Combined-Shape-Copy-18" fill="#7ED321" style="mix-blend-mode: multiply;"></path>
            </g>
        </g>
    </g>
</svg>